<svg width="32" height="32" viewBox="0 0 32 32" fill="none" xmlns="http://www.w3.org/2000/svg">
<g clip-path="url(#clip0)">
<path d="M4.06218 18.5L12.3122 20.6651L1.81218 26.7272L4.06218 18.5Z" fill="black"/>
<path d="M27.0622 12.4282L18.8122 10.2631L29.3122 4.20095L27.0622 12.4282Z" fill="black"/>
<path fill-rule="evenodd" clip-rule="evenodd" d="M28.0963 16.0047C28.646 16.0579 29.0485 16.5466 28.9953 17.0963C28.6034 21.1469 27.251 24.0955 25.2944 26.104C23.3392 28.1112 20.859 29.0988 18.3575 29.3692C15.8647 29.6387 13.3247 29.2011 11.173 28.3337C9.03827 27.4732 7.17985 26.1453 6.15633 24.5369C5.85983 24.0709 5.99718 23.4529 6.46312 23.1563C6.92906 22.8598 7.54715 22.9972 7.84366 23.4631C8.57014 24.6048 10.0242 25.7143 11.9207 26.4788C13.8003 27.2364 16.0103 27.6113 18.1425 27.3808C20.266 27.1512 22.2858 26.3263 23.8618 24.7085C25.4365 23.092 26.6466 20.6031 27.0046 16.9037C27.0578 16.354 27.5466 15.9515 28.0963 16.0047Z" fill="black"/>
<path fill-rule="evenodd" clip-rule="evenodd" d="M10.5964 6.19443C7.25564 7.98 5.21698 11.4378 4.99654 14.0831C4.95068 14.6334 4.46733 15.0424 3.91695 14.9966C3.36657 14.9507 2.95758 14.4673 3.00345 13.917C3.28301 10.5622 5.74435 6.52001 9.65362 4.43057C13.6641 2.28703 19.0772 2.2483 25.0944 6.69582C25.5385 7.02409 25.6324 7.65025 25.3042 8.09438C24.9759 8.53852 24.3497 8.63244 23.9056 8.30417C18.4228 4.25168 13.8359 4.46296 10.5964 6.19443Z" fill="black"/>
</g>
<defs>
<clipPath id="clip0">
<rect width="32" height="32" fill="white"/>
</clipPath>
</defs>
</svg>
