<svg width="32" height="32" viewBox="0 0 32 32" fill="none" xmlns="http://www.w3.org/2000/svg">
<path d="M23.3631 4.39432L22.656 3.68721L23.3631 4.39432L23.7782 3.9792C24.1687 3.58868 24.8019 3.58868 25.1924 3.9792L28.0208 6.80763C28.4113 7.19815 28.4113 7.83132 28.0208 8.22184L27.6057 8.63698C26.8511 9.39161 26.7127 10.4981 27.0887 11.4042C27.4621 12.3039 28.341 13 29.4131 13H30C30.5523 13 31 13.4477 31 14V18C31 18.5523 30.5523 19 30 19H29.4131C28.341 19 27.4621 19.6961 27.0887 20.5958C26.7127 21.5019 26.851 22.6084 27.6057 23.3631L28.0208 23.7782C28.4113 24.1687 28.4113 24.8019 28.0208 25.1924L25.1924 28.0208C24.8019 28.4113 24.1687 28.4113 23.7782 28.0208L23.363 27.6057C22.6084 26.8511 21.5019 26.7127 20.5958 27.0887C19.6961 27.4621 19 28.341 19 29.4131V30C19 30.5523 18.5523 31 18 31H14C13.4477 31 13 30.5523 13 30V29.4131C13 28.341 12.3039 27.4621 11.4042 27.0887C10.4981 26.7127 9.3916 26.8511 8.63698 27.6057L8.22183 28.0208C7.83131 28.4114 7.19814 28.4114 6.80762 28.0208L3.97919 25.1924C3.58867 24.8019 3.58867 24.1687 3.97919 23.7782L3.27209 23.0711L3.97919 23.7782L4.39431 23.3631C5.14895 22.6084 5.28727 21.5019 4.91127 20.5958C4.53792 19.6961 3.65896 19 2.58691 19H2C1.44771 19 1 18.5523 1 18V14C1 13.4477 1.44772 13 2 13H2.58692C3.65897 13 4.53792 12.3039 4.91127 11.4042C5.28726 10.4981 5.14895 9.39159 4.39431 8.63696L3.97919 8.22183C3.58866 7.83131 3.58866 7.19814 3.97919 6.80762L6.80761 3.97919C7.19814 3.58867 7.8313 3.58867 8.22183 3.97919L8.63695 4.39431C9.39158 5.14895 10.4981 5.28727 11.4042 4.91127C12.3039 4.53792 13 3.65896 13 2.58691V2C13 1.44772 13.4477 1 14 1H18C18.5523 1 19 1.44772 19 2V2.58691C19 3.65896 19.6961 4.53792 20.5958 4.91127C21.5019 5.28727 22.6084 5.14895 23.3631 4.39432ZM16 23C19.866 23 23 19.866 23 16C23 12.134 19.866 9 16 9C12.134 9 9 12.134 9 16C9 19.866 12.134 23 16 23Z" stroke="black" stroke-width="2"/>
</svg>
